%TF.GenerationSoftware,KiCad,Pcbnew,(6.0.1)*%
%TF.CreationDate,2022-02-07T09:53:41-08:00*%
%TF.ProjectId,kicad intro project,6b696361-6420-4696-9e74-726f2070726f,rev?*%
%TF.SameCoordinates,Original*%
%TF.FileFunction,Legend,Top*%
%TF.FilePolarity,Positive*%
%FSLAX46Y46*%
G04 Gerber Fmt 4.6, Leading zero omitted, Abs format (unit mm)*
G04 Created by KiCad (PCBNEW (6.0.1)) date 2022-02-07 09:53:41*
%MOMM*%
%LPD*%
G01*
G04 APERTURE LIST*
%ADD10C,0.150000*%
%ADD11C,0.120000*%
G04 APERTURE END LIST*
D10*
%TO.C,R3*%
X139353333Y-98527380D02*
X139020000Y-98051190D01*
X138781904Y-98527380D02*
X138781904Y-97527380D01*
X139162857Y-97527380D01*
X139258095Y-97575000D01*
X139305714Y-97622619D01*
X139353333Y-97717857D01*
X139353333Y-97860714D01*
X139305714Y-97955952D01*
X139258095Y-98003571D01*
X139162857Y-98051190D01*
X138781904Y-98051190D01*
X139686666Y-97527380D02*
X140305714Y-97527380D01*
X139972380Y-97908333D01*
X140115238Y-97908333D01*
X140210476Y-97955952D01*
X140258095Y-98003571D01*
X140305714Y-98098809D01*
X140305714Y-98336904D01*
X140258095Y-98432142D01*
X140210476Y-98479761D01*
X140115238Y-98527380D01*
X139829523Y-98527380D01*
X139734285Y-98479761D01*
X139686666Y-98432142D01*
%TO.C,D1*%
X146761904Y-88352380D02*
X146761904Y-87352380D01*
X147000000Y-87352380D01*
X147142857Y-87400000D01*
X147238095Y-87495238D01*
X147285714Y-87590476D01*
X147333333Y-87780952D01*
X147333333Y-87923809D01*
X147285714Y-88114285D01*
X147238095Y-88209523D01*
X147142857Y-88304761D01*
X147000000Y-88352380D01*
X146761904Y-88352380D01*
X148285714Y-88352380D02*
X147714285Y-88352380D01*
X148000000Y-88352380D02*
X148000000Y-87352380D01*
X147904761Y-87495238D01*
X147809523Y-87590476D01*
X147714285Y-87638095D01*
%TO.C,U1*%
X147902380Y-100786904D02*
X148711904Y-100786904D01*
X148807142Y-100739285D01*
X148854761Y-100691666D01*
X148902380Y-100596428D01*
X148902380Y-100405952D01*
X148854761Y-100310714D01*
X148807142Y-100263095D01*
X148711904Y-100215476D01*
X147902380Y-100215476D01*
X148902380Y-99215476D02*
X148902380Y-99786904D01*
X148902380Y-99501190D02*
X147902380Y-99501190D01*
X148045238Y-99596428D01*
X148140476Y-99691666D01*
X148188095Y-99786904D01*
%TO.C,BT1*%
X162739285Y-98728571D02*
X162882142Y-98776190D01*
X162929761Y-98823809D01*
X162977380Y-98919047D01*
X162977380Y-99061904D01*
X162929761Y-99157142D01*
X162882142Y-99204761D01*
X162786904Y-99252380D01*
X162405952Y-99252380D01*
X162405952Y-98252380D01*
X162739285Y-98252380D01*
X162834523Y-98300000D01*
X162882142Y-98347619D01*
X162929761Y-98442857D01*
X162929761Y-98538095D01*
X162882142Y-98633333D01*
X162834523Y-98680952D01*
X162739285Y-98728571D01*
X162405952Y-98728571D01*
X163263095Y-98252380D02*
X163834523Y-98252380D01*
X163548809Y-99252380D02*
X163548809Y-98252380D01*
X164691666Y-99252380D02*
X164120238Y-99252380D01*
X164405952Y-99252380D02*
X164405952Y-98252380D01*
X164310714Y-98395238D01*
X164215476Y-98490476D01*
X164120238Y-98538095D01*
%TO.C,R1*%
X143483333Y-111677380D02*
X143150000Y-111201190D01*
X142911904Y-111677380D02*
X142911904Y-110677380D01*
X143292857Y-110677380D01*
X143388095Y-110725000D01*
X143435714Y-110772619D01*
X143483333Y-110867857D01*
X143483333Y-111010714D01*
X143435714Y-111105952D01*
X143388095Y-111153571D01*
X143292857Y-111201190D01*
X142911904Y-111201190D01*
X144435714Y-111677380D02*
X143864285Y-111677380D01*
X144150000Y-111677380D02*
X144150000Y-110677380D01*
X144054761Y-110820238D01*
X143959523Y-110915476D01*
X143864285Y-110963095D01*
%TO.C,C1*%
X137694642Y-102966666D02*
X137742261Y-103014285D01*
X137789880Y-103157142D01*
X137789880Y-103252380D01*
X137742261Y-103395238D01*
X137647023Y-103490476D01*
X137551785Y-103538095D01*
X137361309Y-103585714D01*
X137218452Y-103585714D01*
X137027976Y-103538095D01*
X136932738Y-103490476D01*
X136837500Y-103395238D01*
X136789880Y-103252380D01*
X136789880Y-103157142D01*
X136837500Y-103014285D01*
X136885119Y-102966666D01*
X137789880Y-102014285D02*
X137789880Y-102585714D01*
X137789880Y-102300000D02*
X136789880Y-102300000D01*
X136932738Y-102395238D01*
X137027976Y-102490476D01*
X137075595Y-102585714D01*
%TO.C,R2*%
X150058333Y-111427380D02*
X149725000Y-110951190D01*
X149486904Y-111427380D02*
X149486904Y-110427380D01*
X149867857Y-110427380D01*
X149963095Y-110475000D01*
X150010714Y-110522619D01*
X150058333Y-110617857D01*
X150058333Y-110760714D01*
X150010714Y-110855952D01*
X149963095Y-110903571D01*
X149867857Y-110951190D01*
X149486904Y-110951190D01*
X150439285Y-110522619D02*
X150486904Y-110475000D01*
X150582142Y-110427380D01*
X150820238Y-110427380D01*
X150915476Y-110475000D01*
X150963095Y-110522619D01*
X151010714Y-110617857D01*
X151010714Y-110713095D01*
X150963095Y-110855952D01*
X150391666Y-111427380D01*
X151010714Y-111427380D01*
%TO.C,C2*%
X137290833Y-111477142D02*
X137243214Y-111524761D01*
X137100357Y-111572380D01*
X137005119Y-111572380D01*
X136862261Y-111524761D01*
X136767023Y-111429523D01*
X136719404Y-111334285D01*
X136671785Y-111143809D01*
X136671785Y-111000952D01*
X136719404Y-110810476D01*
X136767023Y-110715238D01*
X136862261Y-110620000D01*
X137005119Y-110572380D01*
X137100357Y-110572380D01*
X137243214Y-110620000D01*
X137290833Y-110667619D01*
X137671785Y-110667619D02*
X137719404Y-110620000D01*
X137814642Y-110572380D01*
X138052738Y-110572380D01*
X138147976Y-110620000D01*
X138195595Y-110667619D01*
X138243214Y-110762857D01*
X138243214Y-110858095D01*
X138195595Y-111000952D01*
X137624166Y-111572380D01*
X138243214Y-111572380D01*
%TO.C,BT2*%
X119203571Y-98035714D02*
X119251190Y-97892857D01*
X119298809Y-97845238D01*
X119394047Y-97797619D01*
X119536904Y-97797619D01*
X119632142Y-97845238D01*
X119679761Y-97892857D01*
X119727380Y-97988095D01*
X119727380Y-98369047D01*
X118727380Y-98369047D01*
X118727380Y-98035714D01*
X118775000Y-97940476D01*
X118822619Y-97892857D01*
X118917857Y-97845238D01*
X119013095Y-97845238D01*
X119108333Y-97892857D01*
X119155952Y-97940476D01*
X119203571Y-98035714D01*
X119203571Y-98369047D01*
X118727380Y-97511904D02*
X118727380Y-96940476D01*
X119727380Y-97226190D02*
X118727380Y-97226190D01*
X118822619Y-96654761D02*
X118775000Y-96607142D01*
X118727380Y-96511904D01*
X118727380Y-96273809D01*
X118775000Y-96178571D01*
X118822619Y-96130952D01*
X118917857Y-96083333D01*
X119013095Y-96083333D01*
X119155952Y-96130952D01*
X119727380Y-96702380D01*
X119727380Y-96083333D01*
D11*
%TO.C,R3*%
X136902064Y-92715000D02*
X136447936Y-92715000D01*
X136902064Y-94185000D02*
X136447936Y-94185000D01*
%TO.C,D1*%
X148500000Y-88590000D02*
X145640000Y-88590000D01*
X145640000Y-88590000D02*
X145640000Y-90510000D01*
X145640000Y-90510000D02*
X148500000Y-90510000D01*
%TO.C,U1*%
X147610000Y-100025000D02*
X147610000Y-101975000D01*
X142490000Y-100025000D02*
X142490000Y-101975000D01*
X142490000Y-100025000D02*
X142490000Y-98075000D01*
X147610000Y-100025000D02*
X147610000Y-96575000D01*
%TO.C,BT1*%
X170075000Y-107550000D02*
X168425000Y-109200000D01*
X156975000Y-101950000D02*
X158125000Y-100600000D01*
X170075000Y-101950000D02*
X168925000Y-100600000D01*
X168425000Y-109200000D02*
X166525000Y-109200000D01*
X158625000Y-109200000D02*
X156975000Y-107550000D01*
X158625000Y-109200000D02*
X160525000Y-109200000D01*
X168925000Y-100600000D02*
G75*
G03*
X166029098Y-100102393I-1800000J-1800000D01*
G01*
X161023306Y-100103541D02*
G75*
G03*
X158125000Y-100600000I-1098306J-2296461D01*
G01*
%TO.C,R1*%
X143422936Y-113610000D02*
X143877064Y-113610000D01*
X143422936Y-112140000D02*
X143877064Y-112140000D01*
%TO.C,C1*%
X134922500Y-102538748D02*
X134922500Y-103061252D01*
X136392500Y-102538748D02*
X136392500Y-103061252D01*
%TO.C,R2*%
X149997936Y-113360000D02*
X150452064Y-113360000D01*
X149997936Y-111890000D02*
X150452064Y-111890000D01*
%TO.C,C2*%
X137196248Y-113535000D02*
X137718752Y-113535000D01*
X137196248Y-112065000D02*
X137718752Y-112065000D01*
%TO.C,BT2*%
X122425000Y-90700000D02*
X121075000Y-91850000D01*
X129675000Y-102150000D02*
X128025000Y-103800000D01*
X122425000Y-103800000D02*
X121075000Y-102650000D01*
X128025000Y-90700000D02*
X129675000Y-92350000D01*
X129675000Y-102150000D02*
X129675000Y-100250000D01*
X129675000Y-92350000D02*
X129675000Y-94250000D01*
X121075000Y-91850000D02*
G75*
G03*
X120577393Y-94745902I1800000J-1800000D01*
G01*
X120578541Y-99751694D02*
G75*
G03*
X121075000Y-102650000I2296461J-1098306D01*
G01*
%TD*%
M02*
