%TF.GenerationSoftware,KiCad,Pcbnew,(6.0.1)*%
%TF.CreationDate,2022-02-07T09:53:41-08:00*%
%TF.ProjectId,kicad intro project,6b696361-6420-4696-9e74-726f2070726f,rev?*%
%TF.SameCoordinates,Original*%
%TF.FileFunction,Copper,L1,Top*%
%TF.FilePolarity,Positive*%
%FSLAX46Y46*%
G04 Gerber Fmt 4.6, Leading zero omitted, Abs format (unit mm)*
G04 Created by KiCad (PCBNEW (6.0.1)) date 2022-02-07 09:53:41*
%MOMM*%
%LPD*%
G01*
G04 APERTURE LIST*
G04 Aperture macros list*
%AMRoundRect*
0 Rectangle with rounded corners*
0 $1 Rounding radius*
0 $2 $3 $4 $5 $6 $7 $8 $9 X,Y pos of 4 corners*
0 Add a 4 corners polygon primitive as box body*
4,1,4,$2,$3,$4,$5,$6,$7,$8,$9,$2,$3,0*
0 Add four circle primitives for the rounded corners*
1,1,$1+$1,$2,$3*
1,1,$1+$1,$4,$5*
1,1,$1+$1,$6,$7*
1,1,$1+$1,$8,$9*
0 Add four rect primitives between the rounded corners*
20,1,$1+$1,$2,$3,$4,$5,0*
20,1,$1+$1,$4,$5,$6,$7,0*
20,1,$1+$1,$6,$7,$8,$9,0*
20,1,$1+$1,$8,$9,$2,$3,0*%
G04 Aperture macros list end*
%TA.AperFunction,SMDPad,CuDef*%
%ADD10RoundRect,0.250000X0.350000X0.450000X-0.350000X0.450000X-0.350000X-0.450000X0.350000X-0.450000X0*%
%TD*%
%TA.AperFunction,SMDPad,CuDef*%
%ADD11RoundRect,0.250000X-0.325000X-0.450000X0.325000X-0.450000X0.325000X0.450000X-0.325000X0.450000X0*%
%TD*%
%TA.AperFunction,SMDPad,CuDef*%
%ADD12RoundRect,0.150000X-0.150000X0.825000X-0.150000X-0.825000X0.150000X-0.825000X0.150000X0.825000X0*%
%TD*%
%TA.AperFunction,SMDPad,CuDef*%
%ADD13R,2.500000X5.100000*%
%TD*%
%TA.AperFunction,SMDPad,CuDef*%
%ADD14C,10.200000*%
%TD*%
%TA.AperFunction,SMDPad,CuDef*%
%ADD15RoundRect,0.250000X-0.350000X-0.450000X0.350000X-0.450000X0.350000X0.450000X-0.350000X0.450000X0*%
%TD*%
%TA.AperFunction,SMDPad,CuDef*%
%ADD16RoundRect,0.250000X-0.475000X0.337500X-0.475000X-0.337500X0.475000X-0.337500X0.475000X0.337500X0*%
%TD*%
%TA.AperFunction,SMDPad,CuDef*%
%ADD17RoundRect,0.250000X-0.337500X-0.475000X0.337500X-0.475000X0.337500X0.475000X-0.337500X0.475000X0*%
%TD*%
%TA.AperFunction,SMDPad,CuDef*%
%ADD18R,5.100000X2.500000*%
%TD*%
%TA.AperFunction,Conductor*%
%ADD19C,0.250000*%
%TD*%
G04 APERTURE END LIST*
D10*
%TO.P,R3,1*%
%TO.N,Net-(D1-Pad1)*%
X137675000Y-93450000D03*
%TO.P,R3,2*%
%TO.N,GND*%
X135675000Y-93450000D03*
%TD*%
D11*
%TO.P,D1,1,K*%
%TO.N,Net-(D1-Pad1)*%
X146475000Y-89550000D03*
%TO.P,D1,2,A*%
%TO.N,Net-(D1-Pad2)*%
X148525000Y-89550000D03*
%TD*%
D12*
%TO.P,U1,1,GND*%
%TO.N,GND*%
X146955000Y-97550000D03*
%TO.P,U1,2,TR*%
%TO.N,Net-(C2-Pad2)*%
X145685000Y-97550000D03*
%TO.P,U1,3,Q*%
%TO.N,Net-(D1-Pad2)*%
X144415000Y-97550000D03*
%TO.P,U1,4,R*%
%TO.N,VCC*%
X143145000Y-97550000D03*
%TO.P,U1,5,CV*%
%TO.N,Net-(C1-Pad2)*%
X143145000Y-102500000D03*
%TO.P,U1,6,THR*%
%TO.N,Net-(C2-Pad2)*%
X144415000Y-102500000D03*
%TO.P,U1,7,DIS*%
%TO.N,Net-(R1-Pad2)*%
X145685000Y-102500000D03*
%TO.P,U1,8,VCC*%
%TO.N,VCC*%
X146955000Y-102500000D03*
%TD*%
D13*
%TO.P,BT1,1,+*%
%TO.N,VCC*%
X171125000Y-104800000D03*
X155925000Y-104800000D03*
D14*
%TO.P,BT1,2,-*%
%TO.N,Net-(BT1-Pad2)*%
X163525000Y-104800000D03*
%TD*%
D15*
%TO.P,R1,1*%
%TO.N,Net-(C2-Pad2)*%
X142650000Y-112875000D03*
%TO.P,R1,2*%
%TO.N,Net-(R1-Pad2)*%
X144650000Y-112875000D03*
%TD*%
D16*
%TO.P,C1,1*%
%TO.N,GND*%
X135657500Y-101762500D03*
%TO.P,C1,2*%
%TO.N,Net-(C1-Pad2)*%
X135657500Y-103837500D03*
%TD*%
D15*
%TO.P,R2,1*%
%TO.N,Net-(R1-Pad2)*%
X149225000Y-112625000D03*
%TO.P,R2,2*%
%TO.N,VCC*%
X151225000Y-112625000D03*
%TD*%
D17*
%TO.P,C2,1*%
%TO.N,GND*%
X136420000Y-112800000D03*
%TO.P,C2,2*%
%TO.N,Net-(C2-Pad2)*%
X138495000Y-112800000D03*
%TD*%
D18*
%TO.P,BT2,1,+*%
%TO.N,Net-(BT1-Pad2)*%
X125275000Y-104850000D03*
X125275000Y-89650000D03*
D14*
%TO.P,BT2,2,-*%
%TO.N,GND*%
X125275000Y-97250000D03*
%TD*%
D19*
%TO.N,Net-(D1-Pad1)*%
X141575000Y-89550000D02*
X137675000Y-93450000D01*
X146475000Y-89550000D02*
X141575000Y-89550000D01*
%TO.N,Net-(D1-Pad2)*%
X144415000Y-97173928D02*
X144415000Y-97550000D01*
X148525000Y-89550000D02*
X148525000Y-93063928D01*
X148525000Y-93063928D02*
X144415000Y-97173928D01*
%TO.N,Net-(BT1-Pad2)*%
X119850489Y-102800489D02*
X121900000Y-104850000D01*
X121900000Y-104850000D02*
X125275000Y-104850000D01*
X168150000Y-100175000D02*
X163525000Y-104800000D01*
X125275000Y-89650000D02*
X123975000Y-89650000D01*
X130350000Y-88000000D02*
X128700000Y-89650000D01*
X172700000Y-107674022D02*
X172700000Y-101925978D01*
X172700000Y-101925978D02*
X170949022Y-100175000D01*
X128700000Y-89650000D02*
X125275000Y-89650000D01*
X170949022Y-100175000D02*
X168150000Y-100175000D01*
X142325000Y-88000000D02*
X130350000Y-88000000D01*
X125275000Y-104850000D02*
X134324520Y-113899520D01*
X163525000Y-104800000D02*
X163525000Y-94550000D01*
X123975000Y-89650000D02*
X119850489Y-93774511D01*
X166474502Y-113899520D02*
X172700000Y-107674022D01*
X119850489Y-93774511D02*
X119850489Y-102800489D01*
X151200480Y-82225480D02*
X148099520Y-82225480D01*
X148099520Y-82225480D02*
X142325000Y-88000000D01*
X134324520Y-113899520D02*
X166474502Y-113899520D01*
X163525000Y-94550000D02*
X151200480Y-82225480D01*
%TO.N,Net-(C2-Pad2)*%
X145060480Y-98174520D02*
X145060480Y-101854520D01*
X142650000Y-112875000D02*
X138570000Y-112875000D01*
X145060480Y-101854520D02*
X144415000Y-102500000D01*
X145685000Y-97550000D02*
X145060480Y-98174520D01*
X138570000Y-112875000D02*
X138495000Y-112800000D01*
X144415000Y-111110000D02*
X144415000Y-102500000D01*
X142650000Y-112875000D02*
X144415000Y-111110000D01*
%TO.N,Net-(R1-Pad2)*%
X145685000Y-102500000D02*
X145685000Y-111840000D01*
X145685000Y-111840000D02*
X144650000Y-112875000D01*
X148975000Y-112875000D02*
X149225000Y-112625000D01*
X144650000Y-112875000D02*
X148975000Y-112875000D01*
X145685000Y-109085000D02*
X149225000Y-112625000D01*
%TO.N,GND*%
X135675000Y-101745000D02*
X135657500Y-101762500D01*
X134607980Y-102812020D02*
X134607980Y-110987980D01*
X138375000Y-89100000D02*
X135675000Y-91800000D01*
X129450000Y-93450000D02*
X135675000Y-93450000D01*
X150549520Y-82774520D02*
X150450000Y-82675000D01*
X125650000Y-97250000D02*
X129450000Y-93450000D01*
X143075000Y-89100000D02*
X138375000Y-89100000D01*
X125275000Y-97250000D02*
X131145000Y-97250000D01*
X135675000Y-93450000D02*
X135675000Y-101745000D01*
X134607980Y-110987980D02*
X136420000Y-112800000D01*
X131145000Y-97250000D02*
X135657500Y-101762500D01*
X135675000Y-91800000D02*
X135675000Y-93450000D01*
X150450000Y-82675000D02*
X149500000Y-82675000D01*
X146955000Y-97550000D02*
X150549520Y-93955480D01*
X149500000Y-82675000D02*
X143075000Y-89100000D01*
X135657500Y-101762500D02*
X134607980Y-102812020D01*
X150549520Y-93955480D02*
X150549520Y-82774520D01*
%TO.N,VCC*%
X164600000Y-112625000D02*
X171125000Y-106100000D01*
X146309520Y-98571552D02*
X146031552Y-98849520D01*
X146955000Y-101430000D02*
X146955000Y-102500000D01*
X146955000Y-102500000D02*
X146955000Y-108355000D01*
X150100000Y-93250000D02*
X147775000Y-95575000D01*
X146955000Y-102500000D02*
X149255000Y-104800000D01*
X147775000Y-95575000D02*
X147283928Y-95575000D01*
X149255000Y-104800000D02*
X155925000Y-104800000D01*
X150100000Y-83125000D02*
X150100000Y-93250000D01*
X147625480Y-92693448D02*
X147625480Y-85599520D01*
X143145000Y-97173928D02*
X147625480Y-92693448D01*
X171125000Y-106100000D02*
X171125000Y-104800000D01*
X151225000Y-112625000D02*
X155925000Y-107925000D01*
X147283928Y-95575000D02*
X146309520Y-96549408D01*
X146309520Y-96549408D02*
X146309520Y-98571552D01*
X143145000Y-97550000D02*
X143145000Y-97173928D01*
X155925000Y-107925000D02*
X155925000Y-104800000D01*
X151225000Y-112625000D02*
X164600000Y-112625000D01*
X146031552Y-98849520D02*
X145825000Y-98849520D01*
X145825000Y-98849520D02*
X145825000Y-100300000D01*
X145825000Y-100300000D02*
X146955000Y-101430000D01*
X147625480Y-85599520D02*
X150100000Y-83125000D01*
X146955000Y-108355000D02*
X151225000Y-112625000D01*
%TO.N,Net-(C1-Pad2)*%
X143145000Y-102500000D02*
X141807500Y-103837500D01*
X141807500Y-103837500D02*
X135657500Y-103837500D01*
%TD*%
%TA.AperFunction,NonConductor*%
G36*
X149384533Y-84840539D02*
G01*
X149441368Y-84883086D01*
X149466179Y-84949606D01*
X149466500Y-84958595D01*
X149466500Y-88363281D01*
X149446498Y-88431402D01*
X149392842Y-88477895D01*
X149322568Y-88487999D01*
X149274384Y-88470541D01*
X149267829Y-88466500D01*
X149227550Y-88441672D01*
X149178968Y-88411725D01*
X149178966Y-88411724D01*
X149172738Y-88407885D01*
X149041981Y-88364515D01*
X149011389Y-88354368D01*
X149011387Y-88354368D01*
X149004861Y-88352203D01*
X148998025Y-88351503D01*
X148998022Y-88351502D01*
X148954969Y-88347091D01*
X148900400Y-88341500D01*
X148384980Y-88341500D01*
X148316859Y-88321498D01*
X148270366Y-88267842D01*
X148258980Y-88215500D01*
X148258980Y-85914114D01*
X148278982Y-85845993D01*
X148295881Y-85825023D01*
X149251407Y-84869498D01*
X149313717Y-84835474D01*
X149384533Y-84840539D01*
G37*
%TD.AperFunction*%
%TA.AperFunction,NonConductor*%
G36*
X146910012Y-86265058D02*
G01*
X146966848Y-86307605D01*
X146991659Y-86374125D01*
X146991980Y-86383114D01*
X146991980Y-88216436D01*
X146971978Y-88284557D01*
X146918322Y-88331050D01*
X146856857Y-88341173D01*
X146856815Y-88341992D01*
X146853598Y-88341828D01*
X146850400Y-88341500D01*
X146099600Y-88341500D01*
X146096354Y-88341837D01*
X146096350Y-88341837D01*
X146000692Y-88351762D01*
X146000688Y-88351763D01*
X145993834Y-88352474D01*
X145987298Y-88354655D01*
X145987296Y-88354655D01*
X145855194Y-88398728D01*
X145826054Y-88408450D01*
X145675652Y-88501522D01*
X145550695Y-88626697D01*
X145546855Y-88632927D01*
X145546854Y-88632928D01*
X145522047Y-88673173D01*
X145457885Y-88777262D01*
X145440337Y-88830168D01*
X145399906Y-88888527D01*
X145334342Y-88915764D01*
X145320744Y-88916500D01*
X144458594Y-88916500D01*
X144390473Y-88896498D01*
X144343980Y-88842842D01*
X144333876Y-88772568D01*
X144363370Y-88707988D01*
X144369499Y-88701405D01*
X146776885Y-86294019D01*
X146839197Y-86259993D01*
X146910012Y-86265058D01*
G37*
%TD.AperFunction*%
%TA.AperFunction,NonConductor*%
G36*
X124858786Y-91428502D02*
G01*
X124905279Y-91482158D01*
X124915383Y-91552432D01*
X124885889Y-91617012D01*
X124826163Y-91655396D01*
X124798577Y-91660251D01*
X124688223Y-91667194D01*
X124685605Y-91667581D01*
X124685601Y-91667581D01*
X124225744Y-91735487D01*
X124225741Y-91735487D01*
X124223124Y-91735874D01*
X124220552Y-91736477D01*
X124220548Y-91736478D01*
X124120539Y-91759935D01*
X123765403Y-91843231D01*
X123762892Y-91844047D01*
X123762888Y-91844048D01*
X123320782Y-91987697D01*
X123318271Y-91988513D01*
X122884863Y-92170701D01*
X122882530Y-92171921D01*
X122882525Y-92171923D01*
X122494193Y-92374938D01*
X122424557Y-92388772D01*
X122358497Y-92362762D01*
X122316985Y-92305166D01*
X122313202Y-92234270D01*
X122346723Y-92174181D01*
X123075499Y-91445405D01*
X123137811Y-91411379D01*
X123164594Y-91408500D01*
X124790665Y-91408500D01*
X124858786Y-91428502D01*
G37*
%TD.AperFunction*%
%TA.AperFunction,NonConductor*%
G36*
X140259527Y-89753502D02*
G01*
X140306020Y-89807158D01*
X140316124Y-89877432D01*
X140286630Y-89942012D01*
X140280502Y-89948594D01*
X139090798Y-91138297D01*
X138024500Y-92204595D01*
X137962188Y-92238621D01*
X137935405Y-92241500D01*
X137274600Y-92241500D01*
X137271354Y-92241837D01*
X137271350Y-92241837D01*
X137175692Y-92251762D01*
X137175688Y-92251763D01*
X137168834Y-92252474D01*
X137162298Y-92254655D01*
X137162296Y-92254655D01*
X137082312Y-92281340D01*
X137001054Y-92308450D01*
X136850652Y-92401522D01*
X136845479Y-92406704D01*
X136764216Y-92488109D01*
X136701934Y-92522188D01*
X136631114Y-92517185D01*
X136586025Y-92488264D01*
X136503483Y-92405866D01*
X136498303Y-92400695D01*
X136492072Y-92396854D01*
X136368384Y-92320611D01*
X136320890Y-92267838D01*
X136308500Y-92213351D01*
X136308500Y-92114594D01*
X136328502Y-92046473D01*
X136345405Y-92025499D01*
X138600499Y-89770405D01*
X138662811Y-89736379D01*
X138689594Y-89733500D01*
X140191406Y-89733500D01*
X140259527Y-89753502D01*
G37*
%TD.AperFunction*%
%TA.AperFunction,NonConductor*%
G36*
X137709527Y-88653502D02*
G01*
X137756020Y-88707158D01*
X137766124Y-88777432D01*
X137736630Y-88842012D01*
X137730501Y-88848595D01*
X135282747Y-91296348D01*
X135274461Y-91303888D01*
X135267982Y-91308000D01*
X135262557Y-91313777D01*
X135221357Y-91357651D01*
X135218602Y-91360493D01*
X135198865Y-91380230D01*
X135196385Y-91383427D01*
X135188682Y-91392447D01*
X135158414Y-91424679D01*
X135154595Y-91431625D01*
X135154593Y-91431628D01*
X135148652Y-91442434D01*
X135137801Y-91458953D01*
X135125386Y-91474959D01*
X135122241Y-91482228D01*
X135122238Y-91482232D01*
X135107826Y-91515537D01*
X135102609Y-91526187D01*
X135081305Y-91564940D01*
X135079334Y-91572615D01*
X135079334Y-91572616D01*
X135076267Y-91584562D01*
X135069863Y-91603266D01*
X135061819Y-91621855D01*
X135060580Y-91629678D01*
X135060577Y-91629688D01*
X135054901Y-91665524D01*
X135052495Y-91677144D01*
X135043472Y-91712289D01*
X135041500Y-91719970D01*
X135041500Y-91740224D01*
X135039949Y-91759934D01*
X135036780Y-91779943D01*
X135037526Y-91787835D01*
X135040941Y-91823961D01*
X135041500Y-91835819D01*
X135041500Y-92213219D01*
X135021498Y-92281340D01*
X134981803Y-92320363D01*
X134850652Y-92401522D01*
X134725695Y-92526697D01*
X134632885Y-92677262D01*
X134615337Y-92730168D01*
X134574906Y-92788527D01*
X134509342Y-92815764D01*
X134495744Y-92816500D01*
X129528768Y-92816500D01*
X129517585Y-92815973D01*
X129510092Y-92814298D01*
X129502166Y-92814547D01*
X129502165Y-92814547D01*
X129442002Y-92816438D01*
X129438044Y-92816500D01*
X129410144Y-92816500D01*
X129406154Y-92817004D01*
X129394320Y-92817936D01*
X129350111Y-92819326D01*
X129342495Y-92821539D01*
X129342493Y-92821539D01*
X129330652Y-92824979D01*
X129311293Y-92828988D01*
X129309983Y-92829154D01*
X129291203Y-92831526D01*
X129283837Y-92834442D01*
X129283831Y-92834444D01*
X129250098Y-92847800D01*
X129238868Y-92851645D01*
X129204017Y-92861770D01*
X129196407Y-92863981D01*
X129189584Y-92868016D01*
X129178966Y-92874295D01*
X129161213Y-92882992D01*
X129153568Y-92886019D01*
X129142383Y-92890448D01*
X129135968Y-92895109D01*
X129106612Y-92916437D01*
X129096695Y-92922951D01*
X129058638Y-92945458D01*
X129053029Y-92951067D01*
X129046770Y-92955922D01*
X129045603Y-92954418D01*
X128992269Y-92983541D01*
X128921454Y-92978476D01*
X128885170Y-92957504D01*
X128670999Y-92780326D01*
X128670993Y-92780321D01*
X128668952Y-92778633D01*
X128282895Y-92510316D01*
X127875739Y-92275245D01*
X127450341Y-92075068D01*
X127447861Y-92074146D01*
X127447857Y-92074144D01*
X127012173Y-91912114D01*
X127012167Y-91912112D01*
X127009685Y-91911189D01*
X127007137Y-91910477D01*
X127007129Y-91910475D01*
X126559405Y-91785468D01*
X126559398Y-91785466D01*
X126556861Y-91784758D01*
X126095046Y-91696662D01*
X126092423Y-91696386D01*
X126092414Y-91696385D01*
X125744420Y-91659810D01*
X125678763Y-91632797D01*
X125638133Y-91574575D01*
X125635430Y-91503630D01*
X125671512Y-91442486D01*
X125734923Y-91410556D01*
X125757590Y-91408500D01*
X127873134Y-91408500D01*
X127935316Y-91401745D01*
X128071705Y-91350615D01*
X128188261Y-91263261D01*
X128275615Y-91146705D01*
X128326745Y-91010316D01*
X128333500Y-90948134D01*
X128333500Y-90409500D01*
X128353502Y-90341379D01*
X128407158Y-90294886D01*
X128459500Y-90283500D01*
X128621233Y-90283500D01*
X128632416Y-90284027D01*
X128639909Y-90285702D01*
X128647835Y-90285453D01*
X128647836Y-90285453D01*
X128707986Y-90283562D01*
X128711945Y-90283500D01*
X128739856Y-90283500D01*
X128743791Y-90283003D01*
X128743856Y-90282995D01*
X128755693Y-90282062D01*
X128787951Y-90281048D01*
X128791970Y-90280922D01*
X128799889Y-90280673D01*
X128819343Y-90275021D01*
X128838700Y-90271013D01*
X128850930Y-90269468D01*
X128850931Y-90269468D01*
X128858797Y-90268474D01*
X128866168Y-90265555D01*
X128866170Y-90265555D01*
X128899912Y-90252196D01*
X128911142Y-90248351D01*
X128945983Y-90238229D01*
X128945984Y-90238229D01*
X128953593Y-90236018D01*
X128960412Y-90231985D01*
X128960417Y-90231983D01*
X128971028Y-90225707D01*
X128988776Y-90217012D01*
X129007617Y-90209552D01*
X129043387Y-90183564D01*
X129053307Y-90177048D01*
X129084535Y-90158580D01*
X129084538Y-90158578D01*
X129091362Y-90154542D01*
X129105683Y-90140221D01*
X129120717Y-90127380D01*
X129130694Y-90120131D01*
X129137107Y-90115472D01*
X129165298Y-90081395D01*
X129173288Y-90072616D01*
X130575499Y-88670405D01*
X130637811Y-88636379D01*
X130664594Y-88633500D01*
X137641406Y-88633500D01*
X137709527Y-88653502D01*
G37*
%TD.AperFunction*%
%TA.AperFunction,NonConductor*%
G36*
X149410419Y-90631836D02*
G01*
X149455990Y-90686277D01*
X149466500Y-90736657D01*
X149466500Y-92935405D01*
X149446498Y-93003526D01*
X149429595Y-93024500D01*
X149373595Y-93080500D01*
X149311283Y-93114526D01*
X149240468Y-93109461D01*
X149183632Y-93066914D01*
X149158821Y-93000394D01*
X149158500Y-92991405D01*
X149158500Y-90771311D01*
X149178502Y-90703190D01*
X149218197Y-90664167D01*
X149274197Y-90629513D01*
X149342649Y-90610675D01*
X149410419Y-90631836D01*
G37*
%TD.AperFunction*%
%TA.AperFunction,NonConductor*%
G36*
X134563924Y-94103502D02*
G01*
X134610417Y-94157158D01*
X134615326Y-94169623D01*
X134627510Y-94206141D01*
X134633450Y-94223946D01*
X134726522Y-94374348D01*
X134851697Y-94499305D01*
X134857927Y-94503145D01*
X134857928Y-94503146D01*
X134981616Y-94579389D01*
X135029110Y-94632162D01*
X135041500Y-94686649D01*
X135041500Y-99946406D01*
X135021498Y-100014527D01*
X134967842Y-100061020D01*
X134897568Y-100071124D01*
X134832988Y-100041630D01*
X134826405Y-100035501D01*
X133275913Y-98485008D01*
X131648652Y-96857747D01*
X131641112Y-96849461D01*
X131637000Y-96842982D01*
X131587348Y-96796356D01*
X131584507Y-96793602D01*
X131564770Y-96773865D01*
X131561573Y-96771385D01*
X131552551Y-96763680D01*
X131526100Y-96738841D01*
X131520321Y-96733414D01*
X131513375Y-96729595D01*
X131513372Y-96729593D01*
X131502566Y-96723652D01*
X131486047Y-96712801D01*
X131485583Y-96712441D01*
X131470041Y-96700386D01*
X131462772Y-96697241D01*
X131462768Y-96697238D01*
X131429463Y-96682826D01*
X131418813Y-96677609D01*
X131380060Y-96656305D01*
X131360437Y-96651267D01*
X131341734Y-96644863D01*
X131330420Y-96639967D01*
X131330419Y-96639967D01*
X131323145Y-96636819D01*
X131315322Y-96635580D01*
X131315312Y-96635577D01*
X131279476Y-96629901D01*
X131267856Y-96627495D01*
X131232711Y-96618472D01*
X131232710Y-96618472D01*
X131225030Y-96616500D01*
X131204776Y-96616500D01*
X131185065Y-96614949D01*
X131172886Y-96613020D01*
X131165057Y-96611780D01*
X131157165Y-96612526D01*
X131121039Y-96615941D01*
X131109181Y-96616500D01*
X130959265Y-96616500D01*
X130891144Y-96596498D01*
X130844651Y-96542842D01*
X130834259Y-96506292D01*
X130810277Y-96316454D01*
X130810277Y-96316453D01*
X130809946Y-96313834D01*
X130785008Y-96196509D01*
X130712744Y-95856532D01*
X130712742Y-95856524D01*
X130712198Y-95853965D01*
X130576312Y-95403888D01*
X130403240Y-94966760D01*
X130194198Y-94545648D01*
X130068969Y-94338870D01*
X130030150Y-94274771D01*
X130011971Y-94206141D01*
X130033781Y-94138578D01*
X130088657Y-94093532D01*
X130137926Y-94083500D01*
X134495803Y-94083500D01*
X134563924Y-94103502D01*
G37*
%TD.AperFunction*%
%TA.AperFunction,NonConductor*%
G36*
X145388924Y-90203502D02*
G01*
X145435417Y-90257158D01*
X145440326Y-90269623D01*
X145448755Y-90294886D01*
X145458450Y-90323946D01*
X145551522Y-90474348D01*
X145676697Y-90599305D01*
X145827262Y-90692115D01*
X145907005Y-90718564D01*
X145988611Y-90745632D01*
X145988613Y-90745632D01*
X145995139Y-90747797D01*
X146001975Y-90748497D01*
X146001978Y-90748498D01*
X146045031Y-90752909D01*
X146099600Y-90758500D01*
X146850400Y-90758500D01*
X146853650Y-90758163D01*
X146856892Y-90757995D01*
X146856942Y-90758960D01*
X146922810Y-90771104D01*
X146974587Y-90819680D01*
X146991980Y-90883560D01*
X146991980Y-92378854D01*
X146971978Y-92446975D01*
X146955075Y-92467949D01*
X143393428Y-96029595D01*
X143331116Y-96063621D01*
X143304333Y-96066500D01*
X142928498Y-96066500D01*
X142926050Y-96066693D01*
X142926042Y-96066693D01*
X142897579Y-96068933D01*
X142897574Y-96068934D01*
X142891169Y-96069438D01*
X142791231Y-96098472D01*
X142739012Y-96113643D01*
X142739010Y-96113644D01*
X142731399Y-96115855D01*
X142724572Y-96119892D01*
X142724573Y-96119892D01*
X142595020Y-96196509D01*
X142595017Y-96196511D01*
X142588193Y-96200547D01*
X142470547Y-96318193D01*
X142466511Y-96325017D01*
X142466509Y-96325020D01*
X142402893Y-96432589D01*
X142385855Y-96461399D01*
X142383644Y-96469010D01*
X142383643Y-96469012D01*
X142368472Y-96521231D01*
X142339438Y-96621169D01*
X142338934Y-96627574D01*
X142338933Y-96627579D01*
X142336693Y-96656042D01*
X142336500Y-96658498D01*
X142336500Y-98441502D01*
X142339438Y-98478831D01*
X142385855Y-98638601D01*
X142391742Y-98648555D01*
X142466509Y-98774980D01*
X142466511Y-98774983D01*
X142470547Y-98781807D01*
X142588193Y-98899453D01*
X142595017Y-98903489D01*
X142595020Y-98903491D01*
X142702589Y-98967107D01*
X142731399Y-98984145D01*
X142739010Y-98986356D01*
X142739012Y-98986357D01*
X142791231Y-99001528D01*
X142891169Y-99030562D01*
X142897574Y-99031066D01*
X142897579Y-99031067D01*
X142926042Y-99033307D01*
X142926050Y-99033307D01*
X142928498Y-99033500D01*
X143361502Y-99033500D01*
X143363950Y-99033307D01*
X143363958Y-99033307D01*
X143392421Y-99031067D01*
X143392426Y-99031066D01*
X143398831Y-99030562D01*
X143498769Y-99001528D01*
X143550988Y-98986357D01*
X143550990Y-98986356D01*
X143558601Y-98984145D01*
X143701807Y-98899453D01*
X143704489Y-98896771D01*
X143768861Y-98871498D01*
X143838484Y-98885400D01*
X143854312Y-98895572D01*
X143858193Y-98899453D01*
X144001399Y-98984145D01*
X144009010Y-98986356D01*
X144009012Y-98986357D01*
X144061231Y-99001528D01*
X144161169Y-99030562D01*
X144167574Y-99031066D01*
X144167579Y-99031067D01*
X144196042Y-99033307D01*
X144196050Y-99033307D01*
X144198498Y-99033500D01*
X144300980Y-99033500D01*
X144369101Y-99053502D01*
X144415594Y-99107158D01*
X144426980Y-99159500D01*
X144426980Y-100890500D01*
X144406978Y-100958621D01*
X144353322Y-101005114D01*
X144300980Y-101016500D01*
X144198498Y-101016500D01*
X144196050Y-101016693D01*
X144196042Y-101016693D01*
X144167579Y-101018933D01*
X144167574Y-101018934D01*
X144161169Y-101019438D01*
X144095085Y-101038637D01*
X144009012Y-101063643D01*
X144009010Y-101063644D01*
X144001399Y-101065855D01*
X143858193Y-101150547D01*
X143855511Y-101153229D01*
X143791139Y-101178502D01*
X143721516Y-101164600D01*
X143705688Y-101154428D01*
X143701807Y-101150547D01*
X143558601Y-101065855D01*
X143550990Y-101063644D01*
X143550988Y-101063643D01*
X143464915Y-101038637D01*
X143398831Y-101019438D01*
X143392426Y-101018934D01*
X143392421Y-101018933D01*
X143363958Y-101016693D01*
X143363950Y-101016693D01*
X143361502Y-101016500D01*
X142928498Y-101016500D01*
X142926050Y-101016693D01*
X142926042Y-101016693D01*
X142897579Y-101018933D01*
X142897574Y-101018934D01*
X142891169Y-101019438D01*
X142825085Y-101038637D01*
X142739012Y-101063643D01*
X142739010Y-101063644D01*
X142731399Y-101065855D01*
X142724572Y-101069892D01*
X142724573Y-101069892D01*
X142595020Y-101146509D01*
X142595017Y-101146511D01*
X142588193Y-101150547D01*
X142470547Y-101268193D01*
X142466511Y-101275017D01*
X142466509Y-101275020D01*
X142466112Y-101275692D01*
X142385855Y-101411399D01*
X142339438Y-101571169D01*
X142338934Y-101577574D01*
X142338933Y-101577579D01*
X142336693Y-101606042D01*
X142336500Y-101608498D01*
X142336500Y-102360405D01*
X142316498Y-102428526D01*
X142299595Y-102449501D01*
X141581999Y-103167096D01*
X141519687Y-103201121D01*
X141492904Y-103204000D01*
X136911546Y-103204000D01*
X136843425Y-103183998D01*
X136804402Y-103144303D01*
X136734832Y-103031880D01*
X136730978Y-103025652D01*
X136605803Y-102900695D01*
X136601584Y-102898094D01*
X136561083Y-102840970D01*
X136557851Y-102770047D01*
X136593476Y-102708635D01*
X136601030Y-102702078D01*
X136606848Y-102698478D01*
X136731805Y-102573303D01*
X136753432Y-102538218D01*
X136820775Y-102428968D01*
X136820776Y-102428966D01*
X136824615Y-102422738D01*
X136855607Y-102329299D01*
X136878132Y-102261389D01*
X136878132Y-102261387D01*
X136880297Y-102254861D01*
X136891000Y-102150400D01*
X136891000Y-101374600D01*
X136885725Y-101323756D01*
X136880738Y-101275692D01*
X136880737Y-101275688D01*
X136880026Y-101268834D01*
X136876682Y-101258809D01*
X136826368Y-101108002D01*
X136824050Y-101101054D01*
X136730978Y-100950652D01*
X136605803Y-100825695D01*
X136599572Y-100821854D01*
X136461468Y-100736725D01*
X136461466Y-100736724D01*
X136455238Y-100732885D01*
X136394832Y-100712849D01*
X136336472Y-100672418D01*
X136309236Y-100606853D01*
X136308500Y-100593256D01*
X136308500Y-94686781D01*
X136328502Y-94618660D01*
X136368197Y-94579637D01*
X136426788Y-94543380D01*
X136499348Y-94498478D01*
X136585784Y-94411891D01*
X136648066Y-94377812D01*
X136718886Y-94382815D01*
X136763975Y-94411736D01*
X136802416Y-94450110D01*
X136851697Y-94499305D01*
X136857927Y-94503145D01*
X136857928Y-94503146D01*
X136995090Y-94587694D01*
X137002262Y-94592115D01*
X137056458Y-94610091D01*
X137163611Y-94645632D01*
X137163613Y-94645632D01*
X137170139Y-94647797D01*
X137176975Y-94648497D01*
X137176978Y-94648498D01*
X137220031Y-94652909D01*
X137274600Y-94658500D01*
X138075400Y-94658500D01*
X138078646Y-94658163D01*
X138078650Y-94658163D01*
X138174308Y-94648238D01*
X138174312Y-94648237D01*
X138181166Y-94647526D01*
X138187702Y-94645345D01*
X138187704Y-94645345D01*
X138319806Y-94601272D01*
X138348946Y-94591550D01*
X138499348Y-94498478D01*
X138555236Y-94442493D01*
X138619134Y-94378483D01*
X138624305Y-94373303D01*
X138630637Y-94363031D01*
X138713275Y-94228968D01*
X138713276Y-94228966D01*
X138717115Y-94222738D01*
X138756664Y-94103502D01*
X138770632Y-94061389D01*
X138770632Y-94061387D01*
X138772797Y-94054861D01*
X138783500Y-93950400D01*
X138783500Y-93289594D01*
X138803502Y-93221473D01*
X138820405Y-93200499D01*
X141800500Y-90220405D01*
X141862812Y-90186379D01*
X141889595Y-90183500D01*
X145320803Y-90183500D01*
X145388924Y-90203502D01*
G37*
%TD.AperFunction*%
%TA.AperFunction,NonConductor*%
G36*
X120692501Y-100496076D02*
G01*
X120714936Y-100521572D01*
X120733536Y-100549567D01*
X121025564Y-100918014D01*
X121197450Y-101101054D01*
X121317355Y-101228740D01*
X121347399Y-101260734D01*
X121696783Y-101575321D01*
X121999072Y-101804771D01*
X122037599Y-101834014D01*
X122071266Y-101859569D01*
X122073497Y-101860985D01*
X122073503Y-101860989D01*
X122286121Y-101995920D01*
X122468221Y-102111484D01*
X122470548Y-102112700D01*
X122470554Y-102112704D01*
X122882525Y-102328077D01*
X122882530Y-102328079D01*
X122884863Y-102329299D01*
X123318271Y-102511487D01*
X123320779Y-102512302D01*
X123320782Y-102512303D01*
X123762888Y-102655952D01*
X123762892Y-102655953D01*
X123765403Y-102656769D01*
X124042333Y-102721722D01*
X124220548Y-102763522D01*
X124220552Y-102763523D01*
X124223124Y-102764126D01*
X124225741Y-102764513D01*
X124225744Y-102764513D01*
X124685601Y-102832419D01*
X124685605Y-102832419D01*
X124688223Y-102832806D01*
X124795635Y-102839564D01*
X124798577Y-102839749D01*
X124865307Y-102863989D01*
X124908339Y-102920458D01*
X124914010Y-102991227D01*
X124880520Y-103053829D01*
X124818502Y-103088387D01*
X124790665Y-103091500D01*
X122676866Y-103091500D01*
X122614684Y-103098255D01*
X122478295Y-103149385D01*
X122361739Y-103236739D01*
X122274385Y-103353295D01*
X122223255Y-103489684D01*
X122216500Y-103551866D01*
X122216500Y-103966405D01*
X122196498Y-104034526D01*
X122142842Y-104081019D01*
X122072568Y-104091123D01*
X122007988Y-104061629D01*
X122001405Y-104055500D01*
X120520894Y-102574989D01*
X120486868Y-102512677D01*
X120483989Y-102485894D01*
X120483989Y-100591300D01*
X120503991Y-100523179D01*
X120557647Y-100476686D01*
X120627921Y-100466582D01*
X120692501Y-100496076D01*
G37*
%TD.AperFunction*%
%TA.AperFunction,NonConductor*%
G36*
X170702548Y-100828502D02*
G01*
X170723523Y-100845405D01*
X171404522Y-101526405D01*
X171438547Y-101588717D01*
X171433482Y-101659533D01*
X171390935Y-101716368D01*
X171324415Y-101741179D01*
X171315426Y-101741500D01*
X169826866Y-101741500D01*
X169764684Y-101748255D01*
X169628295Y-101799385D01*
X169511739Y-101886739D01*
X169424385Y-102003295D01*
X169373255Y-102139684D01*
X169366500Y-102201866D01*
X169366500Y-104287754D01*
X169346498Y-104355875D01*
X169292842Y-104402368D01*
X169222568Y-104412472D01*
X169157988Y-104382978D01*
X169119604Y-104323252D01*
X169115494Y-104303546D01*
X169060277Y-103866454D01*
X169059946Y-103863834D01*
X169011407Y-103635476D01*
X168962744Y-103406532D01*
X168962742Y-103406524D01*
X168962198Y-103403965D01*
X168826312Y-102953888D01*
X168653240Y-102516760D01*
X168444198Y-102095648D01*
X168276334Y-101818470D01*
X168202018Y-101695759D01*
X168202014Y-101695753D01*
X168200652Y-101693504D01*
X167980596Y-101390623D01*
X167956738Y-101323756D01*
X167972818Y-101254605D01*
X167993437Y-101227468D01*
X168375500Y-100845405D01*
X168437812Y-100811379D01*
X168464595Y-100808500D01*
X170634427Y-100808500D01*
X170702548Y-100828502D01*
G37*
%TD.AperFunction*%
%TA.AperFunction,NonConductor*%
G36*
X151391532Y-83312890D02*
G01*
X151398115Y-83319019D01*
X162854595Y-94775499D01*
X162888621Y-94837811D01*
X162891500Y-94864594D01*
X162891500Y-99115333D01*
X162871498Y-99183454D01*
X162817842Y-99229947D01*
X162783907Y-99239981D01*
X162475744Y-99285487D01*
X162475741Y-99285487D01*
X162473124Y-99285874D01*
X162470552Y-99286477D01*
X162470548Y-99286478D01*
X162348978Y-99314992D01*
X162015403Y-99393231D01*
X162012892Y-99394047D01*
X162012888Y-99394048D01*
X161570782Y-99537697D01*
X161568271Y-99538513D01*
X161565843Y-99539534D01*
X161565842Y-99539534D01*
X161557747Y-99542937D01*
X161134863Y-99720701D01*
X161132530Y-99721921D01*
X161132525Y-99721923D01*
X160720554Y-99937296D01*
X160720548Y-99937300D01*
X160718221Y-99938516D01*
X160715993Y-99939930D01*
X160323503Y-100189011D01*
X160323497Y-100189015D01*
X160321266Y-100190431D01*
X159946783Y-100474679D01*
X159597399Y-100789266D01*
X159595595Y-100791187D01*
X159595591Y-100791191D01*
X159566797Y-100821854D01*
X159275564Y-101131986D01*
X158983536Y-101500433D01*
X158982082Y-101502622D01*
X158982078Y-101502627D01*
X158744927Y-101859569D01*
X158723363Y-101892025D01*
X158496870Y-102304015D01*
X158305646Y-102733511D01*
X158271068Y-102832806D01*
X158159287Y-103153796D01*
X158151031Y-103177503D01*
X158034112Y-103632876D01*
X158033673Y-103635470D01*
X158033672Y-103635476D01*
X157989386Y-103897311D01*
X157955707Y-104096435D01*
X157936874Y-104320707D01*
X157935058Y-104342335D01*
X157909426Y-104408543D01*
X157852068Y-104450383D01*
X157781195Y-104454571D01*
X157719309Y-104419777D01*
X157686057Y-104357048D01*
X157683500Y-104331791D01*
X157683500Y-102201866D01*
X157676745Y-102139684D01*
X157625615Y-102003295D01*
X157538261Y-101886739D01*
X157421705Y-101799385D01*
X157285316Y-101748255D01*
X157223134Y-101741500D01*
X154626866Y-101741500D01*
X154564684Y-101748255D01*
X154428295Y-101799385D01*
X154311739Y-101886739D01*
X154224385Y-102003295D01*
X154173255Y-102139684D01*
X154166500Y-102201866D01*
X154166500Y-104040500D01*
X154146498Y-104108621D01*
X154092842Y-104155114D01*
X154040500Y-104166500D01*
X149569595Y-104166500D01*
X149501474Y-104146498D01*
X149480500Y-104129595D01*
X147800405Y-102449500D01*
X147766379Y-102387188D01*
X147763500Y-102360405D01*
X147763500Y-101608498D01*
X147763307Y-101606042D01*
X147761067Y-101577579D01*
X147761066Y-101577574D01*
X147760562Y-101571169D01*
X147714145Y-101411399D01*
X147633888Y-101275692D01*
X147633491Y-101275020D01*
X147633489Y-101275017D01*
X147629453Y-101268193D01*
X147557126Y-101195866D01*
X147537765Y-101170905D01*
X147530705Y-101158966D01*
X147522010Y-101141218D01*
X147517472Y-101129756D01*
X147517469Y-101129751D01*
X147514552Y-101122383D01*
X147499056Y-101101054D01*
X147488573Y-101086625D01*
X147482057Y-101076707D01*
X147463575Y-101045457D01*
X147459542Y-101038637D01*
X147445218Y-101024313D01*
X147432376Y-101009278D01*
X147429351Y-101005114D01*
X147420472Y-100992893D01*
X147386406Y-100964711D01*
X147377627Y-100956722D01*
X146495405Y-100074500D01*
X146461379Y-100012188D01*
X146458500Y-99985405D01*
X146458500Y-99372635D01*
X146478502Y-99304514D01*
X146487418Y-99292316D01*
X146496843Y-99280924D01*
X146504830Y-99272148D01*
X146701779Y-99075199D01*
X146710060Y-99067663D01*
X146716538Y-99063552D01*
X146718451Y-99061515D01*
X146781592Y-99034405D01*
X146796669Y-99033500D01*
X147171502Y-99033500D01*
X147173950Y-99033307D01*
X147173958Y-99033307D01*
X147202421Y-99031067D01*
X147202426Y-99031066D01*
X147208831Y-99030562D01*
X147308769Y-99001528D01*
X147360988Y-98986357D01*
X147360990Y-98986356D01*
X147368601Y-98984145D01*
X147397411Y-98967107D01*
X147504980Y-98903491D01*
X147504983Y-98903489D01*
X147511807Y-98899453D01*
X147629453Y-98781807D01*
X147633489Y-98774983D01*
X147633491Y-98774980D01*
X147708258Y-98648555D01*
X147714145Y-98638601D01*
X147760562Y-98478831D01*
X147763500Y-98441502D01*
X147763500Y-97689594D01*
X147783502Y-97621473D01*
X147800405Y-97600499D01*
X150941773Y-94459132D01*
X150950059Y-94451592D01*
X150956538Y-94447480D01*
X151003164Y-94397828D01*
X151005918Y-94394987D01*
X151025655Y-94375250D01*
X151028135Y-94372053D01*
X151035840Y-94363031D01*
X151060679Y-94336580D01*
X151066106Y-94330801D01*
X151069925Y-94323855D01*
X151069927Y-94323852D01*
X151075868Y-94313046D01*
X151086719Y-94296527D01*
X151094278Y-94286781D01*
X151099134Y-94280521D01*
X151102279Y-94273252D01*
X151102282Y-94273248D01*
X151116694Y-94239943D01*
X151121911Y-94229293D01*
X151143215Y-94190540D01*
X151148253Y-94170917D01*
X151154657Y-94152214D01*
X151159553Y-94140900D01*
X151159553Y-94140899D01*
X151162701Y-94133625D01*
X151163940Y-94125802D01*
X151163943Y-94125792D01*
X151169619Y-94089956D01*
X151172025Y-94078336D01*
X151181048Y-94043191D01*
X151181048Y-94043190D01*
X151183020Y-94035510D01*
X151183020Y-94015256D01*
X151184571Y-93995545D01*
X151186500Y-93983366D01*
X151187740Y-93975537D01*
X151183579Y-93931518D01*
X151183020Y-93919661D01*
X151183020Y-83408114D01*
X151203022Y-83339993D01*
X151256678Y-83293500D01*
X151326952Y-83283396D01*
X151391532Y-83312890D01*
G37*
%TD.AperFunction*%
%TA.AperFunction,NonConductor*%
G36*
X169334297Y-105228114D02*
G01*
X169364892Y-105292180D01*
X169366500Y-105312246D01*
X169366500Y-106910405D01*
X169346498Y-106978526D01*
X169329595Y-106999500D01*
X168596063Y-107733032D01*
X168533751Y-107767058D01*
X168462936Y-107761993D01*
X168406100Y-107719446D01*
X168381289Y-107652926D01*
X168399192Y-107578666D01*
X168442824Y-107506620D01*
X168444198Y-107504352D01*
X168653240Y-107083240D01*
X168826312Y-106646112D01*
X168962198Y-106196035D01*
X169010855Y-105967124D01*
X169059399Y-105738739D01*
X169059946Y-105736166D01*
X169115494Y-105296454D01*
X169143876Y-105231377D01*
X169202935Y-105191976D01*
X169273921Y-105190759D01*
X169334297Y-105228114D01*
G37*
%TD.AperFunction*%
%TA.AperFunction,NonConductor*%
G36*
X147797012Y-104238370D02*
G01*
X147803595Y-104244499D01*
X148751343Y-105192247D01*
X148758887Y-105200537D01*
X148763000Y-105207018D01*
X148768777Y-105212443D01*
X148812667Y-105253658D01*
X148815509Y-105256413D01*
X148835230Y-105276134D01*
X148838425Y-105278612D01*
X148847447Y-105286318D01*
X148879679Y-105316586D01*
X148886628Y-105320406D01*
X148897432Y-105326346D01*
X148913956Y-105337199D01*
X148929959Y-105349613D01*
X148970543Y-105367176D01*
X148981173Y-105372383D01*
X149019940Y-105393695D01*
X149027617Y-105395666D01*
X149027622Y-105395668D01*
X149039558Y-105398732D01*
X149058266Y-105405137D01*
X149076855Y-105413181D01*
X149084683Y-105414421D01*
X149084690Y-105414423D01*
X149120524Y-105420099D01*
X149132144Y-105422505D01*
X149167289Y-105431528D01*
X149174970Y-105433500D01*
X149195224Y-105433500D01*
X149214934Y-105435051D01*
X149234943Y-105438220D01*
X149242835Y-105437474D01*
X149278961Y-105434059D01*
X149290819Y-105433500D01*
X154040500Y-105433500D01*
X154108621Y-105453502D01*
X154155114Y-105507158D01*
X154166500Y-105559500D01*
X154166500Y-107398134D01*
X154173255Y-107460316D01*
X154224385Y-107596705D01*
X154311739Y-107713261D01*
X154428295Y-107800615D01*
X154564684Y-107851745D01*
X154626866Y-107858500D01*
X154791406Y-107858500D01*
X154859527Y-107878502D01*
X154906020Y-107932158D01*
X154916124Y-108002432D01*
X154886630Y-108067012D01*
X154880502Y-108073594D01*
X153223998Y-109730097D01*
X151574500Y-111379595D01*
X151512188Y-111413621D01*
X151485405Y-111416500D01*
X150964594Y-111416500D01*
X150896473Y-111396498D01*
X150875499Y-111379595D01*
X147625405Y-108129500D01*
X147591379Y-108067188D01*
X147588500Y-108040405D01*
X147588500Y-104333594D01*
X147608502Y-104265473D01*
X147662158Y-104218980D01*
X147732432Y-104208876D01*
X147797012Y-104238370D01*
G37*
%TD.AperFunction*%
%TA.AperFunction,NonConductor*%
G36*
X157892012Y-105172985D02*
G01*
X157930396Y-105232711D01*
X157935058Y-105257665D01*
X157955707Y-105503565D01*
X158034112Y-105967124D01*
X158151031Y-106422497D01*
X158151899Y-106424991D01*
X158151901Y-106424996D01*
X158196744Y-106553767D01*
X158305646Y-106866489D01*
X158496870Y-107295985D01*
X158723363Y-107707975D01*
X158724815Y-107710161D01*
X158724819Y-107710167D01*
X158977571Y-108090589D01*
X158983536Y-108099567D01*
X159275564Y-108468014D01*
X159501647Y-108708768D01*
X159556985Y-108767697D01*
X159597399Y-108810734D01*
X159946783Y-109125321D01*
X160321266Y-109409569D01*
X160323497Y-109410985D01*
X160323503Y-109410989D01*
X160651923Y-109619410D01*
X160718221Y-109661484D01*
X160720548Y-109662700D01*
X160720554Y-109662704D01*
X161132525Y-109878077D01*
X161132530Y-109878079D01*
X161134863Y-109879299D01*
X161568271Y-110061487D01*
X161570779Y-110062302D01*
X161570782Y-110062303D01*
X162012888Y-110205952D01*
X162012892Y-110205953D01*
X162015403Y-110206769D01*
X162342663Y-110283527D01*
X162470548Y-110313522D01*
X162470552Y-110313523D01*
X162473124Y-110314126D01*
X162475741Y-110314513D01*
X162475744Y-110314513D01*
X162935601Y-110382419D01*
X162935605Y-110382419D01*
X162938223Y-110382806D01*
X163407439Y-110412327D01*
X163410071Y-110412272D01*
X163410078Y-110412272D01*
X163579138Y-110408730D01*
X163877478Y-110402481D01*
X163880101Y-110402205D01*
X163880106Y-110402205D01*
X164342414Y-110353615D01*
X164342423Y-110353614D01*
X164345046Y-110353338D01*
X164806861Y-110265242D01*
X164809398Y-110264534D01*
X164809405Y-110264532D01*
X165257129Y-110139525D01*
X165257137Y-110139523D01*
X165259685Y-110138811D01*
X165262167Y-110137888D01*
X165262173Y-110137886D01*
X165697857Y-109975856D01*
X165697861Y-109975854D01*
X165700341Y-109974932D01*
X166125739Y-109774755D01*
X166310979Y-109667807D01*
X166379975Y-109651069D01*
X166447066Y-109674290D01*
X166490953Y-109730097D01*
X166497702Y-109800772D01*
X166463074Y-109866021D01*
X164374500Y-111954595D01*
X164312188Y-111988621D01*
X164285405Y-111991500D01*
X153058594Y-111991500D01*
X152990473Y-111971498D01*
X152943980Y-111917842D01*
X152933876Y-111847568D01*
X152963370Y-111782988D01*
X152969499Y-111776405D01*
X154539136Y-110206769D01*
X156317253Y-108428652D01*
X156325539Y-108421112D01*
X156332018Y-108417000D01*
X156378644Y-108367348D01*
X156381398Y-108364507D01*
X156401135Y-108344770D01*
X156403615Y-108341573D01*
X156411320Y-108332551D01*
X156436159Y-108306100D01*
X156441586Y-108300321D01*
X156445405Y-108293375D01*
X156445407Y-108293372D01*
X156451348Y-108282566D01*
X156462199Y-108266047D01*
X156469758Y-108256301D01*
X156474614Y-108250041D01*
X156477759Y-108242772D01*
X156477762Y-108242768D01*
X156492174Y-108209463D01*
X156497391Y-108198813D01*
X156518695Y-108160060D01*
X156523733Y-108140437D01*
X156530137Y-108121734D01*
X156535033Y-108110420D01*
X156535033Y-108110419D01*
X156538181Y-108103145D01*
X156539420Y-108095322D01*
X156539423Y-108095312D01*
X156545099Y-108059476D01*
X156547505Y-108047856D01*
X156556528Y-108012711D01*
X156556528Y-108012710D01*
X156558500Y-108005030D01*
X156558500Y-107984776D01*
X156560071Y-107964940D01*
X156560115Y-107964664D01*
X156590592Y-107900541D01*
X156650898Y-107863075D01*
X156684544Y-107858500D01*
X157223134Y-107858500D01*
X157285316Y-107851745D01*
X157421705Y-107800615D01*
X157538261Y-107713261D01*
X157625615Y-107596705D01*
X157676745Y-107460316D01*
X157683500Y-107398134D01*
X157683500Y-105268209D01*
X157703502Y-105200088D01*
X157757158Y-105153595D01*
X157827432Y-105143491D01*
X157892012Y-105172985D01*
G37*
%TD.AperFunction*%
%TA.AperFunction,NonConductor*%
G36*
X146527012Y-110823370D02*
G01*
X146533595Y-110829499D01*
X147730500Y-112026405D01*
X147764526Y-112088717D01*
X147759461Y-112159533D01*
X147716914Y-112216368D01*
X147650394Y-112241179D01*
X147641405Y-112241500D01*
X146397131Y-112241500D01*
X146329010Y-112221498D01*
X146282517Y-112167842D01*
X146272413Y-112097568D01*
X146278120Y-112076106D01*
X146278695Y-112075060D01*
X146283733Y-112055437D01*
X146290137Y-112036734D01*
X146295033Y-112025420D01*
X146295033Y-112025419D01*
X146298181Y-112018145D01*
X146299420Y-112010322D01*
X146299423Y-112010312D01*
X146305099Y-111974476D01*
X146307505Y-111962856D01*
X146316528Y-111927711D01*
X146316528Y-111927710D01*
X146318500Y-111920030D01*
X146318500Y-111899776D01*
X146320051Y-111880065D01*
X146321980Y-111867886D01*
X146323220Y-111860057D01*
X146319059Y-111816038D01*
X146318500Y-111804181D01*
X146318500Y-110918594D01*
X146338502Y-110850473D01*
X146392158Y-110803980D01*
X146462432Y-110793876D01*
X146527012Y-110823370D01*
G37*
%TD.AperFunction*%
%TA.AperFunction,NonConductor*%
G36*
X143727509Y-103919828D02*
G01*
X143771978Y-103975173D01*
X143781500Y-104023224D01*
X143781500Y-110795405D01*
X143761498Y-110863526D01*
X143744595Y-110884501D01*
X142999499Y-111629596D01*
X142937187Y-111663621D01*
X142910404Y-111666500D01*
X142249600Y-111666500D01*
X142246354Y-111666837D01*
X142246350Y-111666837D01*
X142150692Y-111676762D01*
X142150688Y-111676763D01*
X142143834Y-111677474D01*
X142137298Y-111679655D01*
X142137296Y-111679655D01*
X142010811Y-111721854D01*
X141976054Y-111733450D01*
X141825652Y-111826522D01*
X141820479Y-111831704D01*
X141795347Y-111856880D01*
X141700695Y-111951697D01*
X141696855Y-111957927D01*
X141696854Y-111957928D01*
X141624653Y-112075060D01*
X141607885Y-112102262D01*
X141602330Y-112119011D01*
X141590337Y-112155168D01*
X141549906Y-112213527D01*
X141484342Y-112240764D01*
X141470744Y-112241500D01*
X139695060Y-112241500D01*
X139626939Y-112221498D01*
X139580446Y-112167842D01*
X139575536Y-112155376D01*
X139546757Y-112069115D01*
X139524050Y-112001054D01*
X139430978Y-111850652D01*
X139305803Y-111725695D01*
X139231113Y-111679655D01*
X139161468Y-111636725D01*
X139161466Y-111636724D01*
X139155238Y-111632885D01*
X138994754Y-111579655D01*
X138993889Y-111579368D01*
X138993887Y-111579368D01*
X138987361Y-111577203D01*
X138980525Y-111576503D01*
X138980522Y-111576502D01*
X138937469Y-111572091D01*
X138882900Y-111566500D01*
X138107100Y-111566500D01*
X138103854Y-111566837D01*
X138103850Y-111566837D01*
X138008192Y-111576762D01*
X138008188Y-111576763D01*
X138001334Y-111577474D01*
X137994798Y-111579655D01*
X137994796Y-111579655D01*
X137911614Y-111607407D01*
X137833554Y-111633450D01*
X137683152Y-111726522D01*
X137558195Y-111851697D01*
X137555594Y-111855916D01*
X137498470Y-111896417D01*
X137427547Y-111899649D01*
X137366135Y-111864024D01*
X137359578Y-111856470D01*
X137355978Y-111850652D01*
X137230803Y-111725695D01*
X137156113Y-111679655D01*
X137086468Y-111636725D01*
X137086466Y-111636724D01*
X137080238Y-111632885D01*
X136919754Y-111579655D01*
X136918889Y-111579368D01*
X136918887Y-111579368D01*
X136912361Y-111577203D01*
X136905525Y-111576503D01*
X136905522Y-111576502D01*
X136862469Y-111572091D01*
X136807900Y-111566500D01*
X136134595Y-111566500D01*
X136066474Y-111546498D01*
X136045500Y-111529595D01*
X135278385Y-110762480D01*
X135244359Y-110700168D01*
X135241480Y-110673385D01*
X135241480Y-105059500D01*
X135261482Y-104991379D01*
X135315138Y-104944886D01*
X135367480Y-104933500D01*
X136182900Y-104933500D01*
X136186146Y-104933163D01*
X136186150Y-104933163D01*
X136281808Y-104923238D01*
X136281812Y-104923237D01*
X136288666Y-104922526D01*
X136295202Y-104920345D01*
X136295204Y-104920345D01*
X136449498Y-104868868D01*
X136456446Y-104866550D01*
X136606848Y-104773478D01*
X136731805Y-104648303D01*
X136804184Y-104530883D01*
X136856955Y-104483391D01*
X136911443Y-104471000D01*
X141728733Y-104471000D01*
X141739916Y-104471527D01*
X141747409Y-104473202D01*
X141755335Y-104472953D01*
X141755336Y-104472953D01*
X141815486Y-104471062D01*
X141819445Y-104471000D01*
X141847356Y-104471000D01*
X141851291Y-104470503D01*
X141851356Y-104470495D01*
X141863193Y-104469562D01*
X141895451Y-104468548D01*
X141899470Y-104468422D01*
X141907389Y-104468173D01*
X141926843Y-104462521D01*
X141946200Y-104458513D01*
X141958430Y-104456968D01*
X141958431Y-104456968D01*
X141966297Y-104455974D01*
X141973668Y-104453055D01*
X141973670Y-104453055D01*
X142007412Y-104439696D01*
X142018642Y-104435851D01*
X142053483Y-104425729D01*
X142053484Y-104425729D01*
X142061093Y-104423518D01*
X142067912Y-104419485D01*
X142067917Y-104419483D01*
X142078528Y-104413207D01*
X142096276Y-104404512D01*
X142115117Y-104397052D01*
X142150887Y-104371064D01*
X142160807Y-104364548D01*
X142192035Y-104346080D01*
X142192038Y-104346078D01*
X142198862Y-104342042D01*
X142213183Y-104327721D01*
X142228217Y-104314880D01*
X142238194Y-104307631D01*
X142244607Y-104302972D01*
X142272798Y-104268895D01*
X142280788Y-104260116D01*
X142584611Y-103956293D01*
X142646923Y-103922267D01*
X142723747Y-103929751D01*
X142724575Y-103930109D01*
X142731399Y-103934145D01*
X142739010Y-103936356D01*
X142739012Y-103936357D01*
X142791231Y-103951528D01*
X142891169Y-103980562D01*
X142897574Y-103981066D01*
X142897579Y-103981067D01*
X142926042Y-103983307D01*
X142926050Y-103983307D01*
X142928498Y-103983500D01*
X143361502Y-103983500D01*
X143363950Y-103983307D01*
X143363958Y-103983307D01*
X143392421Y-103981067D01*
X143392426Y-103981066D01*
X143398831Y-103980562D01*
X143498769Y-103951528D01*
X143550988Y-103936357D01*
X143550990Y-103936356D01*
X143558601Y-103934145D01*
X143591363Y-103914769D01*
X143660178Y-103897311D01*
X143727509Y-103919828D01*
G37*
%TD.AperFunction*%
%TA.AperFunction,NonConductor*%
G36*
X131033907Y-98034811D02*
G01*
X134387095Y-101387999D01*
X134421121Y-101450311D01*
X134424000Y-101477094D01*
X134424000Y-102047905D01*
X134403998Y-102116026D01*
X134387095Y-102137000D01*
X134215727Y-102308368D01*
X134207441Y-102315908D01*
X134200962Y-102320020D01*
X134195537Y-102325797D01*
X134154337Y-102369671D01*
X134151582Y-102372513D01*
X134131845Y-102392250D01*
X134129365Y-102395447D01*
X134121662Y-102404467D01*
X134091394Y-102436699D01*
X134087575Y-102443645D01*
X134087573Y-102443648D01*
X134081632Y-102454454D01*
X134070781Y-102470973D01*
X134058366Y-102486979D01*
X134055221Y-102494248D01*
X134055218Y-102494252D01*
X134040806Y-102527557D01*
X134035589Y-102538207D01*
X134014285Y-102576960D01*
X134012314Y-102584635D01*
X134012314Y-102584636D01*
X134009247Y-102596582D01*
X134002843Y-102615286D01*
X133994799Y-102633875D01*
X133993560Y-102641698D01*
X133993557Y-102641708D01*
X133987881Y-102677544D01*
X133985475Y-102689164D01*
X133983084Y-102698478D01*
X133974480Y-102731990D01*
X133974480Y-102752244D01*
X133972929Y-102771954D01*
X133969760Y-102791963D01*
X133970506Y-102799855D01*
X133973921Y-102835981D01*
X133974480Y-102847839D01*
X133974480Y-110909213D01*
X133973953Y-110920396D01*
X133972278Y-110927889D01*
X133972527Y-110935815D01*
X133972527Y-110935816D01*
X133974418Y-110995966D01*
X133974480Y-110999925D01*
X133974480Y-111027836D01*
X133974977Y-111031770D01*
X133974977Y-111031771D01*
X133974985Y-111031836D01*
X133975918Y-111043673D01*
X133977307Y-111087869D01*
X133982958Y-111107319D01*
X133986967Y-111126680D01*
X133989506Y-111146777D01*
X133992425Y-111154148D01*
X133992425Y-111154150D01*
X134005784Y-111187892D01*
X134009629Y-111199122D01*
X134021962Y-111241573D01*
X134025995Y-111248392D01*
X134025997Y-111248397D01*
X134032273Y-111259008D01*
X134040968Y-111276756D01*
X134048428Y-111295597D01*
X134053090Y-111302013D01*
X134053090Y-111302014D01*
X134074416Y-111331367D01*
X134080932Y-111341287D01*
X134103438Y-111379342D01*
X134117759Y-111393663D01*
X134130599Y-111408696D01*
X134142508Y-111425087D01*
X134176585Y-111453278D01*
X134185364Y-111461268D01*
X135287095Y-112562999D01*
X135321121Y-112625311D01*
X135324000Y-112652094D01*
X135324000Y-113140020D01*
X135303998Y-113208141D01*
X135250342Y-113254634D01*
X135198000Y-113266020D01*
X134639114Y-113266020D01*
X134570993Y-113246018D01*
X134550019Y-113229115D01*
X128060042Y-106739137D01*
X128026016Y-106676825D01*
X128031081Y-106606010D01*
X128073572Y-106549216D01*
X128181080Y-106468643D01*
X128181081Y-106468642D01*
X128188261Y-106463261D01*
X128275615Y-106346705D01*
X128326745Y-106210316D01*
X128333500Y-106148134D01*
X128333500Y-103551866D01*
X128326745Y-103489684D01*
X128275615Y-103353295D01*
X128188261Y-103236739D01*
X128071705Y-103149385D01*
X127935316Y-103098255D01*
X127873134Y-103091500D01*
X125757590Y-103091500D01*
X125689469Y-103071498D01*
X125642976Y-103017842D01*
X125632872Y-102947568D01*
X125662366Y-102882988D01*
X125722092Y-102844604D01*
X125744420Y-102840190D01*
X126092414Y-102803615D01*
X126092423Y-102803614D01*
X126095046Y-102803338D01*
X126556861Y-102715242D01*
X126559398Y-102714534D01*
X126559405Y-102714532D01*
X127007129Y-102589525D01*
X127007137Y-102589523D01*
X127009685Y-102588811D01*
X127012167Y-102587888D01*
X127012173Y-102587886D01*
X127447857Y-102425856D01*
X127447861Y-102425854D01*
X127450341Y-102424932D01*
X127875739Y-102224755D01*
X128282895Y-101989684D01*
X128668952Y-101721367D01*
X128904621Y-101526405D01*
X129029174Y-101423366D01*
X129029180Y-101423360D01*
X129031203Y-101421687D01*
X129367108Y-101092745D01*
X129368821Y-101090760D01*
X129368828Y-101090753D01*
X129672574Y-100738859D01*
X129674309Y-100736849D01*
X129950652Y-100356496D01*
X129962019Y-100337728D01*
X130121434Y-100074500D01*
X130194198Y-99954352D01*
X130403240Y-99533240D01*
X130576312Y-99096112D01*
X130712198Y-98646035D01*
X130713779Y-98638601D01*
X130809399Y-98188739D01*
X130809946Y-98186166D01*
X130819807Y-98108110D01*
X130848187Y-98043038D01*
X130907247Y-98003636D01*
X130978233Y-98002419D01*
X131033907Y-98034811D01*
G37*
%TD.AperFunction*%
%TA.AperFunction,NonConductor*%
G36*
X171383549Y-107878502D02*
G01*
X171430042Y-107932158D01*
X171440146Y-108002432D01*
X171410652Y-108067012D01*
X171404524Y-108073594D01*
X168804732Y-110673385D01*
X166249002Y-113229115D01*
X166186690Y-113263141D01*
X166159907Y-113266020D01*
X165159646Y-113266020D01*
X165091525Y-113246018D01*
X165045032Y-113192362D01*
X165034928Y-113122088D01*
X165062555Y-113059712D01*
X165065292Y-113056403D01*
X165073288Y-113047616D01*
X170225499Y-107895405D01*
X170287811Y-107861379D01*
X170314594Y-107858500D01*
X171315428Y-107858500D01*
X171383549Y-107878502D01*
G37*
%TD.AperFunction*%
%TA.AperFunction,NonConductor*%
G36*
X147405027Y-81808002D02*
G01*
X147451520Y-81861658D01*
X147461624Y-81931932D01*
X147432130Y-81996512D01*
X147426001Y-82003094D01*
X142099500Y-87329595D01*
X142037188Y-87363621D01*
X142010405Y-87366500D01*
X130428763Y-87366500D01*
X130417579Y-87365973D01*
X130410091Y-87364299D01*
X130402168Y-87364548D01*
X130342033Y-87366438D01*
X130338075Y-87366500D01*
X130310144Y-87366500D01*
X130306229Y-87366995D01*
X130306225Y-87366995D01*
X130306167Y-87367003D01*
X130306138Y-87367006D01*
X130294296Y-87367939D01*
X130250110Y-87369327D01*
X130232744Y-87374372D01*
X130230658Y-87374978D01*
X130211306Y-87378986D01*
X130199068Y-87380532D01*
X130199066Y-87380533D01*
X130191203Y-87381526D01*
X130150086Y-87397806D01*
X130138885Y-87401641D01*
X130096406Y-87413982D01*
X130089587Y-87418015D01*
X130089582Y-87418017D01*
X130078971Y-87424293D01*
X130061221Y-87432990D01*
X130042383Y-87440448D01*
X130035967Y-87445109D01*
X130035966Y-87445110D01*
X130006625Y-87466428D01*
X129996701Y-87472947D01*
X129965460Y-87491422D01*
X129965455Y-87491426D01*
X129958637Y-87495458D01*
X129944313Y-87509782D01*
X129929281Y-87522621D01*
X129912893Y-87534528D01*
X129884712Y-87568593D01*
X129876722Y-87577373D01*
X128548595Y-88905500D01*
X128486283Y-88939526D01*
X128415468Y-88934461D01*
X128358632Y-88891914D01*
X128333821Y-88825394D01*
X128333500Y-88816405D01*
X128333500Y-88351866D01*
X128326745Y-88289684D01*
X128275615Y-88153295D01*
X128188261Y-88036739D01*
X128071705Y-87949385D01*
X127935316Y-87898255D01*
X127873134Y-87891500D01*
X122676866Y-87891500D01*
X122614684Y-87898255D01*
X122478295Y-87949385D01*
X122361739Y-88036739D01*
X122274385Y-88153295D01*
X122223255Y-88289684D01*
X122216500Y-88351866D01*
X122216500Y-90460405D01*
X122196498Y-90528526D01*
X122179595Y-90549500D01*
X119458236Y-93270859D01*
X119449950Y-93278399D01*
X119443471Y-93282511D01*
X119438046Y-93288288D01*
X119396846Y-93332162D01*
X119394091Y-93335004D01*
X119374354Y-93354741D01*
X119371874Y-93357938D01*
X119364171Y-93366958D01*
X119333903Y-93399190D01*
X119330084Y-93406136D01*
X119330082Y-93406139D01*
X119324141Y-93416945D01*
X119313290Y-93433464D01*
X119300875Y-93449470D01*
X119297730Y-93456739D01*
X119297727Y-93456743D01*
X119283315Y-93490048D01*
X119278098Y-93500698D01*
X119256794Y-93539451D01*
X119254823Y-93547126D01*
X119254823Y-93547127D01*
X119251756Y-93559073D01*
X119245352Y-93577777D01*
X119237308Y-93596366D01*
X119236069Y-93604189D01*
X119236066Y-93604199D01*
X119230390Y-93640035D01*
X119227984Y-93651655D01*
X119216989Y-93694481D01*
X119216989Y-93714735D01*
X119215438Y-93734445D01*
X119212269Y-93754454D01*
X119213015Y-93762346D01*
X119216430Y-93798472D01*
X119216989Y-93810330D01*
X119216989Y-102721722D01*
X119216462Y-102732905D01*
X119214787Y-102740398D01*
X119215036Y-102748324D01*
X119215036Y-102748325D01*
X119216927Y-102808475D01*
X119216989Y-102812434D01*
X119216989Y-102840345D01*
X119217486Y-102844279D01*
X119217486Y-102844280D01*
X119217494Y-102844345D01*
X119218427Y-102856182D01*
X119219816Y-102900378D01*
X119225467Y-102919828D01*
X119229476Y-102939189D01*
X119232015Y-102959286D01*
X119234934Y-102966657D01*
X119234934Y-102966659D01*
X119248293Y-103000401D01*
X119252138Y-103011631D01*
X119258021Y-103031880D01*
X119264471Y-103054082D01*
X119268504Y-103060901D01*
X119268506Y-103060906D01*
X119274782Y-103071517D01*
X119283477Y-103089265D01*
X119290937Y-103108106D01*
X119295599Y-103114522D01*
X119295599Y-103114523D01*
X119316925Y-103143876D01*
X119323441Y-103153796D01*
X119341303Y-103183998D01*
X119345947Y-103191851D01*
X119360268Y-103206172D01*
X119373108Y-103221205D01*
X119385017Y-103237596D01*
X119419094Y-103265787D01*
X119427873Y-103273777D01*
X121396343Y-105242247D01*
X121403887Y-105250537D01*
X121408000Y-105257018D01*
X121413777Y-105262443D01*
X121457667Y-105303658D01*
X121460509Y-105306413D01*
X121480230Y-105326134D01*
X121483425Y-105328612D01*
X121492447Y-105336318D01*
X121524679Y-105366586D01*
X121531628Y-105370406D01*
X121542432Y-105376346D01*
X121558956Y-105387199D01*
X121574959Y-105399613D01*
X121615543Y-105417176D01*
X121626173Y-105422383D01*
X121664940Y-105443695D01*
X121672617Y-105445666D01*
X121672622Y-105445668D01*
X121684558Y-105448732D01*
X121703266Y-105455137D01*
X121721855Y-105463181D01*
X121729683Y-105464421D01*
X121729690Y-105464423D01*
X121765524Y-105470099D01*
X121777144Y-105472505D01*
X121812289Y-105481528D01*
X121819970Y-105483500D01*
X121840224Y-105483500D01*
X121859934Y-105485051D01*
X121879943Y-105488220D01*
X121887835Y-105487474D01*
X121923961Y-105484059D01*
X121935819Y-105483500D01*
X122090500Y-105483500D01*
X122158621Y-105503502D01*
X122205114Y-105557158D01*
X122216500Y-105609500D01*
X122216500Y-106148134D01*
X122223255Y-106210316D01*
X122274385Y-106346705D01*
X122361739Y-106463261D01*
X122478295Y-106550615D01*
X122614684Y-106601745D01*
X122676866Y-106608500D01*
X126085406Y-106608500D01*
X126153527Y-106628502D01*
X126174501Y-106645405D01*
X133820868Y-114291773D01*
X133828408Y-114300059D01*
X133832520Y-114306538D01*
X133838297Y-114311963D01*
X133882171Y-114353163D01*
X133885013Y-114355918D01*
X133904750Y-114375655D01*
X133907947Y-114378135D01*
X133916967Y-114385838D01*
X133949199Y-114416106D01*
X133956145Y-114419925D01*
X133956148Y-114419927D01*
X133966954Y-114425868D01*
X133983473Y-114436719D01*
X133999479Y-114449134D01*
X134006748Y-114452279D01*
X134006752Y-114452282D01*
X134040057Y-114466694D01*
X134050707Y-114471911D01*
X134089460Y-114493215D01*
X134097135Y-114495186D01*
X134097136Y-114495186D01*
X134109082Y-114498253D01*
X134127787Y-114504657D01*
X134146375Y-114512701D01*
X134154198Y-114513940D01*
X134154208Y-114513943D01*
X134190044Y-114519619D01*
X134201664Y-114522025D01*
X134233479Y-114530193D01*
X134244490Y-114533020D01*
X134264744Y-114533020D01*
X134284454Y-114534571D01*
X134304463Y-114537740D01*
X134312355Y-114536994D01*
X134331100Y-114535222D01*
X134348482Y-114533579D01*
X134360339Y-114533020D01*
X166395735Y-114533020D01*
X166406918Y-114533547D01*
X166414411Y-114535222D01*
X166422337Y-114534973D01*
X166422338Y-114534973D01*
X166482488Y-114533082D01*
X166486447Y-114533020D01*
X166514358Y-114533020D01*
X166518293Y-114532523D01*
X166518358Y-114532515D01*
X166530195Y-114531582D01*
X166562453Y-114530568D01*
X166566472Y-114530442D01*
X166574391Y-114530193D01*
X166593845Y-114524541D01*
X166613202Y-114520533D01*
X166625432Y-114518988D01*
X166625433Y-114518988D01*
X166633299Y-114517994D01*
X166640670Y-114515075D01*
X166640672Y-114515075D01*
X166674414Y-114501716D01*
X166685644Y-114497871D01*
X166720485Y-114487749D01*
X166720486Y-114487749D01*
X166728095Y-114485538D01*
X166734914Y-114481505D01*
X166734919Y-114481503D01*
X166745530Y-114475227D01*
X166763278Y-114466532D01*
X166782119Y-114459072D01*
X166817889Y-114433084D01*
X166827809Y-114426568D01*
X166859037Y-114408100D01*
X166859040Y-114408098D01*
X166865864Y-114404062D01*
X166880185Y-114389741D01*
X166895219Y-114376900D01*
X166905196Y-114369651D01*
X166911609Y-114364992D01*
X166939800Y-114330915D01*
X166947790Y-114322136D01*
X173092247Y-108177679D01*
X173100537Y-108170135D01*
X173107018Y-108166022D01*
X173153659Y-108116354D01*
X173156413Y-108113513D01*
X173176135Y-108093791D01*
X173178619Y-108090589D01*
X173186317Y-108081577D01*
X173211161Y-108055120D01*
X173216586Y-108049343D01*
X173226347Y-108031588D01*
X173237198Y-108015069D01*
X173249614Y-107999063D01*
X173255797Y-107984776D01*
X173267174Y-107958485D01*
X173272391Y-107947835D01*
X173293695Y-107909082D01*
X173298733Y-107889459D01*
X173305137Y-107870756D01*
X173310033Y-107859442D01*
X173310033Y-107859441D01*
X173313181Y-107852167D01*
X173314420Y-107844344D01*
X173314423Y-107844334D01*
X173320099Y-107808498D01*
X173322505Y-107796878D01*
X173331528Y-107761733D01*
X173331528Y-107761732D01*
X173333500Y-107754052D01*
X173333500Y-107733798D01*
X173335051Y-107714087D01*
X173336980Y-107701908D01*
X173338220Y-107694079D01*
X173334059Y-107650060D01*
X173333500Y-107638203D01*
X173333500Y-102004745D01*
X173334027Y-101993562D01*
X173335702Y-101986069D01*
X173333562Y-101917978D01*
X173333500Y-101914021D01*
X173333500Y-101886122D01*
X173332996Y-101882131D01*
X173332063Y-101870289D01*
X173330923Y-101834014D01*
X173330674Y-101826089D01*
X173328462Y-101818475D01*
X173328461Y-101818470D01*
X173325023Y-101806637D01*
X173321012Y-101787273D01*
X173319467Y-101775042D01*
X173318474Y-101767181D01*
X173315557Y-101759814D01*
X173315556Y-101759809D01*
X173302198Y-101726070D01*
X173298354Y-101714843D01*
X173292154Y-101693504D01*
X173286018Y-101672385D01*
X173275707Y-101654950D01*
X173267012Y-101637202D01*
X173259552Y-101618361D01*
X173233564Y-101582591D01*
X173227048Y-101572671D01*
X173208580Y-101541443D01*
X173208578Y-101541440D01*
X173204542Y-101534616D01*
X173190221Y-101520295D01*
X173177380Y-101505261D01*
X173170131Y-101495284D01*
X173165472Y-101488871D01*
X173131395Y-101460680D01*
X173122616Y-101452690D01*
X171452674Y-99782747D01*
X171445134Y-99774461D01*
X171441022Y-99767982D01*
X171415056Y-99743598D01*
X171391371Y-99721357D01*
X171388529Y-99718602D01*
X171368792Y-99698865D01*
X171365595Y-99696385D01*
X171356573Y-99688680D01*
X171343144Y-99676069D01*
X171324343Y-99658414D01*
X171317397Y-99654595D01*
X171317394Y-99654593D01*
X171306588Y-99648652D01*
X171290069Y-99637801D01*
X171289605Y-99637441D01*
X171274063Y-99625386D01*
X171266794Y-99622241D01*
X171266790Y-99622238D01*
X171233485Y-99607826D01*
X171222835Y-99602609D01*
X171184082Y-99581305D01*
X171164459Y-99576267D01*
X171145756Y-99569863D01*
X171134442Y-99564967D01*
X171134441Y-99564967D01*
X171127167Y-99561819D01*
X171119344Y-99560580D01*
X171119334Y-99560577D01*
X171083498Y-99554901D01*
X171071878Y-99552495D01*
X171036733Y-99543472D01*
X171036732Y-99543472D01*
X171029052Y-99541500D01*
X171008798Y-99541500D01*
X170989087Y-99539949D01*
X170976908Y-99538020D01*
X170969079Y-99536780D01*
X170939808Y-99539547D01*
X170925061Y-99540941D01*
X170913203Y-99541500D01*
X168228768Y-99541500D01*
X168217585Y-99540973D01*
X168210092Y-99539298D01*
X168202166Y-99539547D01*
X168202165Y-99539547D01*
X168142002Y-99541438D01*
X168138044Y-99541500D01*
X168110144Y-99541500D01*
X168106154Y-99542004D01*
X168094320Y-99542936D01*
X168050111Y-99544326D01*
X168042497Y-99546538D01*
X168042492Y-99546539D01*
X168030659Y-99549977D01*
X168011296Y-99553988D01*
X167991203Y-99556526D01*
X167983836Y-99559443D01*
X167983831Y-99559444D01*
X167950092Y-99572802D01*
X167938865Y-99576646D01*
X167896407Y-99588982D01*
X167889581Y-99593019D01*
X167878972Y-99599293D01*
X167861224Y-99607988D01*
X167842383Y-99615448D01*
X167835967Y-99620110D01*
X167835966Y-99620110D01*
X167806613Y-99641436D01*
X167796693Y-99647952D01*
X167765465Y-99666420D01*
X167765462Y-99666422D01*
X167758638Y-99670458D01*
X167744317Y-99684779D01*
X167729284Y-99697619D01*
X167712893Y-99709528D01*
X167707843Y-99715632D01*
X167707838Y-99715637D01*
X167684707Y-99743598D01*
X167676717Y-99752379D01*
X167099356Y-100329739D01*
X167037044Y-100363764D01*
X166966228Y-100358699D01*
X166929946Y-100337728D01*
X166929902Y-100337691D01*
X166918952Y-100328633D01*
X166532895Y-100060316D01*
X166125739Y-99825245D01*
X165700341Y-99625068D01*
X165697861Y-99624146D01*
X165697857Y-99624144D01*
X165262173Y-99462114D01*
X165262167Y-99462112D01*
X165259685Y-99461189D01*
X165257137Y-99460477D01*
X165257129Y-99460475D01*
X164809405Y-99335468D01*
X164809398Y-99335466D01*
X164806861Y-99334758D01*
X164345046Y-99246662D01*
X164271329Y-99238914D01*
X164205673Y-99211901D01*
X164165043Y-99153679D01*
X164158500Y-99113604D01*
X164158500Y-94628763D01*
X164159027Y-94617579D01*
X164160701Y-94610091D01*
X164158562Y-94542032D01*
X164158500Y-94538075D01*
X164158500Y-94510144D01*
X164157994Y-94506138D01*
X164157061Y-94494292D01*
X164155922Y-94458037D01*
X164155673Y-94450110D01*
X164150022Y-94430658D01*
X164146014Y-94411306D01*
X164144467Y-94399063D01*
X164143474Y-94391203D01*
X164138268Y-94378054D01*
X164127200Y-94350097D01*
X164123355Y-94338870D01*
X164119625Y-94326032D01*
X164111018Y-94296407D01*
X164106984Y-94289585D01*
X164106981Y-94289579D01*
X164100706Y-94278968D01*
X164092010Y-94261218D01*
X164087472Y-94249756D01*
X164087469Y-94249751D01*
X164084552Y-94242383D01*
X164058573Y-94206625D01*
X164052057Y-94196707D01*
X164033575Y-94165457D01*
X164029542Y-94158637D01*
X164015218Y-94144313D01*
X164002376Y-94129278D01*
X163990472Y-94112893D01*
X163956406Y-94084711D01*
X163947627Y-94076722D01*
X151874000Y-82003095D01*
X151839974Y-81940783D01*
X151845039Y-81869968D01*
X151887586Y-81813132D01*
X151954106Y-81788321D01*
X151963095Y-81788000D01*
X174626000Y-81788000D01*
X174694121Y-81808002D01*
X174740614Y-81861658D01*
X174752000Y-81914000D01*
X174752000Y-116206000D01*
X174731998Y-116274121D01*
X174678342Y-116320614D01*
X174626000Y-116332000D01*
X117474000Y-116332000D01*
X117405879Y-116311998D01*
X117359386Y-116258342D01*
X117348000Y-116206000D01*
X117348000Y-81914000D01*
X117368002Y-81845879D01*
X117421658Y-81799386D01*
X117474000Y-81788000D01*
X147336906Y-81788000D01*
X147405027Y-81808002D01*
G37*
%TD.AperFunction*%
M02*
